<?xml version="1.0" encoding="UTF-8"?>
<!DOCTYPE svg PUBLIC "-//W3C//DTD SVG 1.1//EN" "http://www.w3.org/Graphics/SVG/1.1/DTD/svg11.dtd">
<!-- Creator: CorelDRAW 2019 (64-Bit) -->
<svg xmlns="http://www.w3.org/2000/svg" xml:space="preserve" width="1646px" height="480px" version="1.1" style="shape-rendering:geometricPrecision; text-rendering:geometricPrecision; image-rendering:optimizeQuality; fill-rule:evenodd; clip-rule:evenodd"
viewBox="0 0 1646 479.92"
 xmlns:xlink="http://www.w3.org/1999/xlink"
 xmlns:xodm="http://www.corel.com/coreldraw/odm/2003">
 <defs>
  <style type="text/css">
   <![CDATA[
    .fil0 {fill:#108DE8}
    .fil2 {fill:#79BBE7}
    .fil1 {fill:white}
   ]]>
  </style>
 </defs>
 <g id="Layer_x0020_1">
  <metadata id="CorelCorpID_0Corel-Layer"/>
  <path class="fil0" d="M217.03 0.87c-79.36,7.51 -143.68,49.53 -182.74,114.39 -25.38,42.14 -37.32,92.08 -33.64,143.32 9.01,125.36 116.74,231.49 254.63,220.57 123.72,-9.81 225.8,-121.11 215.35,-257.99 -3.83,-50.12 -21.26,-91.43 -49.18,-128.72 -12.64,-16.89 -15.13,-17.16 -28.33,-30.99 -16.37,-17.15 -51,-36.83 -73.09,-45.55 -29.63,-11.68 -67.35,-18.4 -103,-15.03z"/>
  <path class="fil1" d="M99.19 170.03c-3.01,8.69 -1.21,105.29 -1.22,123.2 0,19.38 -3.82,25.44 26.5,35.81 80.29,27.46 159.8,-65.64 239.64,-19.58 3.7,2.13 8.2,6.51 9.26,-0.56l0.03 -124.26c0.01,-13.37 1.2,-17.55 -7.66,-23.73 -71.44,-49.77 -148.8,35.36 -221.29,25.81 -26.83,-3.53 -37.94,-17.22 -45.26,-16.69z"/>
  <path class="fil0" d="M650.79 361.59c31.3,2.23 67.76,-22.04 80.6,-35.94 44.62,-48.29 45.7,-118.16 0.78,-168.72 -16.72,-18.83 -55.89,-39.64 -80.86,-36.73l-90.21 0.07 -0.02 241.02 89.71 0.3zm-39.04 -52.22c6.65,1.15 33.94,0.72 41.43,0.03 61.63,-5.63 83.39,-89.88 31.59,-125.18 -8.6,-5.86 -18.17,-10.53 -30.72,-11.93 -6.88,-0.77 -36.24,-1.24 -42.33,-0.15l0.03 137.23z"/>
  <path class="fil0" d="M1440.87 362.04l51.31 -0.02 0.05 -51.95 101.82 0.02 0.3 51.93 51.28 0.01c0.03,-28.87 0.01,-57.5 0.01,-86.14 0,-25.79 2.17,-58.08 -4.19,-81.47 -10.76,-39.6 -48.42,-74.72 -97.98,-74.92 -50.09,-0.19 -86.45,34.83 -98.06,73.85 -6.87,23.1 -4.57,56.21 -4.57,81.63 0,28.98 -0.3,58.1 0.03,87.06zm51.36 -104.23l102.07 0.04c0.25,-22.28 2.64,-43.94 -7.36,-61.01 -7.15,-12.21 -22.24,-24.99 -43.44,-25.08 -21.63,-0.09 -36.05,12.18 -43.76,24.83 -10.11,16.59 -7.83,39.44 -7.51,61.22z"/>
  <path class="fil0" d="M853.99 361.98l51.13 0.05c0.03,-10.84 -1.37,-44.08 0.5,-51.96l101.42 0.01 0.36 51.91 51.21 0.05c-0.27,-28.78 -0.03,-57.52 -0.03,-86.15 0,-24.55 2.27,-59.73 -4.16,-81.5 -29.3,-99.15 -165.72,-99.85 -196,-1 -6.85,22.39 -4.51,56.66 -4.51,81.59 0,28.78 -0.66,58.33 0.08,87zm51.16 -104.18l102.2 0.06c0.21,-21.96 2.61,-44.03 -7.41,-61.06 -18.34,-31.19 -65,-35.67 -87.19,-0.16 -10.14,16.24 -7.93,39.78 -7.6,61.16z"/>
  <path class="fil0" d="M1148.61 214.34l-0.7 36c0,30.19 -1.5,86.5 0.11,110.99l50.14 0.03c1.17,-17.17 -1.81,-139.67 1.37,-143.57 0.01,-23.81 24.83,-45.94 49.93,-46.03 15.42,-0.06 26.67,6.21 34.85,13.66 6.39,5.82 16.17,19.07 15.98,32.49 2.34,1.32 0.49,129.1 1.23,143.41l50.2 0.04 -0.4 -146.29c1.25,-11.46 -5.65,-29.17 -10.08,-38.17 -37.16,-75.53 -143.82,-76.53 -182.04,-1.3 -4.48,8.82 -11.65,27.02 -10.59,38.74z"/>
  <path class="fil2" d="M650.79 361.59l-89.71 -0.3 0.02 -241.02 90.21 -0.07c-1.64,-2.29 -39.28,-0.92 -44.55,-0.92 -13.13,0 -33.84,-1.24 -46.04,0.19 -1.15,3.84 -1.62,236.4 -0.08,242.66 8.31,1.07 66.19,0.25 84.49,0.29l5.03 -0.52c0.16,-0.05 0.42,-0.21 0.63,-0.31z"/>
  <path class="fil2" d="M1300.29 217.91c0.53,19.72 -1.07,137.21 0.77,144.25l51.11 0.22c1.33,-5.65 0.52,-97.26 0.52,-111.12 0,-6.64 1.77,-32.68 -1.37,-36.19l0.4 146.29 -50.2 -0.04c-0.74,-14.31 1.11,-142.09 -1.23,-143.41z"/>
  <path class="fil2" d="M1199.53 217.79c-3.18,3.9 -0.2,126.4 -1.37,143.57l-50.14 -0.03c-1.61,-24.49 -0.11,-80.8 -0.11,-110.99l0.7 -36c-2.85,1.24 -1.58,65.41 -1.58,73.42 0,11.66 -1.38,67.74 0.61,74.43l51.09 0.18 0.8 -144.58z"/>
 </g>
</svg>
